<svg xmlns="http://www.w3.org/2000/svg" viewBox="0 0 256 300" fill="none">
  <style>
    @media (prefers-color-scheme: dark) {
      .gold-fill { fill: url(#goldGradientDark); }
    }
    @media (prefers-color-scheme: light) {
      .gold-fill { fill: url(#goldGradientLight); }
    }
  </style>
  <defs>
    <linearGradient id="goldGradientLight" x1="0%" y1="0%" x2="100%" y2="100%">
      <stop offset="0%" stop-color="#9C7738" />
      <stop offset="40%" stop-color="#C8A663" />
      <stop offset="75%" stop-color="#8E6A2D" />
      <stop offset="100%" stop-color="#72511E" />
    </linearGradient>
    <linearGradient id="goldGradientDark" x1="0%" y1="0%" x2="100%" y2="100%">
      <stop offset="0%" stop-color="#DFBD78" />
      <stop offset="45%" stop-color="#F3DC9B" />
      <stop offset="80%" stop-color="#CBA763" />
      <stop offset="100%" stop-color="#A58039" />
    </linearGradient>
  </defs>
  <path class="gold-fill" d="M 12 78 L 12 81 L 11 82 L 9 93 L 7 114 L 7 143 L 10 166 L 14 183 L 23 206 L 36 228 L 46 241 L 60 255 L 70 263 L 85 273 L 99 280 L 110 284 L 119 286 L 127 293 L 133 286 L 147 283 L 160 278 L 179 267 L 192 257 L 210 239 L 218 229 L 228 213 L 235 199 L 242 180 L 246 163 L 249 137 L 249 115 L 247 95 L 245 82 L 244 81 L 244 78 L 233 78 L 219 80 L 195 87 L 184 92 L 168 101 L 151 114 L 138 127 L 129 139 L 127 140 L 123 136 L 119 130 L 101 112 L 85 100 L 69 91 L 60 87 L 41 81 L 23 78 Z M 127 159 L 136 176 L 142 193 L 145 208 L 145 236 L 142 249 L 139 258 L 131 273 L 128 277 L 125 277 L 125 276 L 121 271 L 114 257 L 114 254 L 112 251 L 109 238 L 108 230 L 108 214 L 110 200 L 114 185 L 117 177 L 125 161 Z M 236 88 L 238 104 L 238 148 L 236 162 L 233 175 L 227 193 L 223 202 L 217 213 L 203 233 L 183 253 L 161 268 L 153 272 L 142 276 L 141 274 L 143 272 L 149 259 L 154 242 L 156 227 L 156 215 L 154 200 L 149 182 L 146 174 L 133 150 L 133 148 L 141 137 L 153 124 L 162 116 L 181 103 L 193 97 L 210 91 L 229 87 Z M 20 87 L 36 89 L 58 96 L 79 107 L 96 120 L 109 133 L 121 149 L 121 151 L 114 162 L 106 180 L 100 201 L 98 214 L 98 230 L 100 245 L 104 259 L 110 272 L 111 276 L 85 263 L 68 250 L 52 234 L 39 216 L 33 205 L 28 194 L 22 176 L 18 156 L 17 146 L 17 107 Z M 129 6 L 127 8 L 125 21 L 119 34 L 110 43 L 102 47 L 96 49 L 87 50 L 87 52 L 92 52 L 96 53 L 108 58 L 118 68 L 124 80 L 126 87 L 126 92 L 128 97 L 130 92 L 130 87 L 134 74 L 138 67 L 146 59 L 154 55 L 160 53 L 164 53 L 170 50 L 165 50 L 154 47 L 146 43 L 138 35 L 134 28 L 131 19 L 130 9 L 129 8 Z" fill="url(#goldGradientLight)" fill-rule="evenodd" />
</svg>
